<svg width="15" height="14" viewBox="0 0 15 14" fill="none" xmlns="http://www.w3.org/2000/svg">
<path d="M7.78296 1.94336C9.41137 1.94336 9.61455 1.94861 10.2534 1.97487C10.8917 2.00113 11.3263 2.08884 11.7086 2.21909C12.1042 2.3525 12.4374 2.53317 12.7707 2.82466C13.0754 3.08721 13.3113 3.40479 13.4617 3.75532C13.6098 4.08988 13.7104 4.47118 13.7404 5.03053C13.7686 5.5904 13.7764 5.76844 13.7764 7.19543C13.7764 8.62242 13.7704 8.80046 13.7404 9.36033C13.7104 9.91968 13.6098 10.3005 13.4617 10.6355C13.3117 10.9863 13.0758 11.3039 12.7707 11.5662C12.471 11.8332 12.1086 12.0398 11.7086 12.1718C11.3269 12.3015 10.8917 12.3897 10.2534 12.416C9.61455 12.4407 9.41137 12.4475 7.78296 12.4475C6.15455 12.4475 5.95138 12.4423 5.31248 12.416C4.67418 12.3897 4.23966 12.3015 3.85728 12.1718C3.45711 12.0402 3.09463 11.8335 2.79525 11.5662C2.49042 11.3037 2.2546 10.9861 2.10421 10.6355C1.95557 10.301 1.85548 9.91968 1.82551 9.36033C1.79734 8.80046 1.78955 8.62242 1.78955 7.19543C1.78955 5.76844 1.79554 5.5904 1.82551 5.03053C1.85548 4.47066 1.95557 4.09041 2.10421 3.75532C2.25418 3.40458 2.49006 3.0869 2.79525 2.82466C3.09472 2.55745 3.45717 2.35078 3.85728 2.21909C4.23966 2.08884 4.67358 2.00113 5.31248 1.97487C5.95138 1.95019 6.15455 1.94336 7.78296 1.94336ZM7.78296 4.5694C6.98819 4.5694 6.22596 4.84607 5.66397 5.33854C5.10198 5.83102 4.78626 6.49896 4.78626 7.19543C4.78626 7.8919 5.10198 8.55984 5.66397 9.05232C6.22596 9.5448 6.98819 9.82147 7.78296 9.82147C8.57774 9.82147 9.33996 9.5448 9.90195 9.05232C10.4639 8.55984 10.7797 7.8919 10.7797 7.19543C10.7797 6.49896 10.4639 5.83102 9.90195 5.33854C9.33996 4.84607 8.57774 4.5694 7.78296 4.5694V4.5694ZM11.6787 4.43809C11.6787 4.26398 11.5998 4.09699 11.4593 3.97387C11.3188 3.85075 11.1282 3.78158 10.9295 3.78158C10.7308 3.78158 10.5403 3.85075 10.3998 3.97387C10.2593 4.09699 10.1803 4.26398 10.1803 4.43809C10.1803 4.61221 10.2593 4.7792 10.3998 4.90232C10.5403 5.02543 10.7308 5.0946 10.9295 5.0946C11.1282 5.0946 11.3188 5.02543 11.4593 4.90232C11.5998 4.7792 11.6787 4.61221 11.6787 4.43809ZM7.78296 5.61981C8.25983 5.61981 8.71716 5.78581 9.05436 6.0813C9.39155 6.37678 9.58099 6.77755 9.58099 7.19543C9.58099 7.61331 9.39155 8.01408 9.05436 8.30956C8.71716 8.60505 8.25983 8.77105 7.78296 8.77105C7.3061 8.77105 6.84876 8.60505 6.51157 8.30956C6.17437 8.01408 5.98494 7.61331 5.98494 7.19543C5.98494 6.77755 6.17437 6.37678 6.51157 6.0813C6.84876 5.78581 7.3061 5.61981 7.78296 5.61981V5.61981Z" fill="#2B2B2B"/>
</svg>
