<svg width="16" height="14" viewBox="0 0 16 14" fill="none" xmlns="http://www.w3.org/2000/svg">
<path d="M4.89102 3.5192C4.89086 3.79779 4.76442 4.06491 4.53951 4.2618C4.3146 4.4587 4.00965 4.56923 3.69174 4.56909C3.37383 4.56895 3.069 4.45815 2.84431 4.26106C2.61963 4.06397 2.49349 3.79674 2.49365 3.51815C2.49381 3.23956 2.62025 2.97244 2.84516 2.77555C3.07007 2.57866 3.37502 2.46812 3.69293 2.46826C4.01084 2.4684 4.31567 2.5792 4.54036 2.77629C4.76504 2.97338 4.89118 3.24061 4.89102 3.5192V3.5192ZM4.92698 5.34692H2.52961V11.9225H4.92698V5.34692ZM8.71481 5.34692H6.32944V11.9225H8.69084V8.47191C8.69084 6.54965 11.5497 6.37108 11.5497 8.47191V11.9225H13.9171V7.75762C13.9171 4.51709 9.68575 4.63789 8.69084 6.22927L8.71481 5.34692V5.34692Z" fill="#2B2B2B"/>
</svg>
