<svg width="16" height="14" viewBox="0 0 16 14" fill="none" xmlns="http://www.w3.org/2000/svg">
<path d="M13.9444 3.8634C13.4868 4.04076 13.0016 4.15724 12.5048 4.20898C13.0285 3.93453 13.4204 3.50259 13.6076 2.99365C13.1161 3.24996 12.5773 3.42958 12.0157 3.52674C11.6385 3.17305 11.1385 2.93849 10.5935 2.85951C10.0484 2.78053 9.48886 2.86156 9.00179 3.09C8.51472 3.31845 8.12743 3.68151 7.90011 4.12274C7.6728 4.56397 7.6182 5.05865 7.74482 5.52988C6.74818 5.48611 5.77318 5.25915 4.88313 4.86374C3.99308 4.46833 3.20788 3.91332 2.57849 3.23472C2.35571 3.57004 2.23864 3.95123 2.23927 4.33923C2.23927 5.10079 2.68158 5.77358 3.35404 6.16748C2.95608 6.1565 2.56688 6.06232 2.21889 5.8928V5.92011C2.21901 6.4273 2.41929 6.91885 2.78577 7.31141C3.15226 7.70398 3.66239 7.97339 4.22968 8.07398C3.86025 8.16171 3.47289 8.17464 3.09692 8.1118C3.25687 8.54837 3.56861 8.93018 3.9885 9.20376C4.40839 9.47735 4.9154 9.62901 5.43855 9.63753C4.91861 9.99536 4.32328 10.2599 3.6866 10.416C3.04993 10.5721 2.38438 10.6166 1.72803 10.5472C2.87379 11.1929 4.20756 11.5357 5.56981 11.5346C10.1805 11.5346 12.702 8.18743 12.702 5.28461C12.702 5.19007 12.699 5.09448 12.6942 5.001C13.185 4.69016 13.6085 4.30511 13.945 3.86392L13.9444 3.8634Z" fill="#2B2B2B"/>
</svg>
