<svg width="16" height="14" viewBox="0 0 16 14" fill="none" xmlns="http://www.w3.org/2000/svg">
<path d="M13.7129 4.30562C13.9868 5.24154 13.9868 7.19531 13.9868 7.19531C13.9868 7.19531 13.9868 9.14908 13.7129 10.085C13.5607 10.6023 13.1154 11.0094 12.5514 11.147C11.5271 11.397 7.99341 11.397 7.99341 11.397C7.99341 11.397 4.46149 11.397 3.43542 11.147C2.86904 11.0073 2.42433 10.6008 2.2739 10.085C2 9.14908 2 7.19531 2 7.19531C2 7.19531 2 5.24154 2.2739 4.30562C2.42613 3.78829 2.87144 3.38126 3.43542 3.24365C4.46149 2.99365 7.99341 2.99365 7.99341 2.99365C7.99341 2.99365 11.5271 2.99365 12.5514 3.24365C13.1178 3.38336 13.5625 3.78987 13.7129 4.30562V4.30562ZM6.79473 9.03353L10.3908 7.19531L6.79473 5.35708V9.03353Z" fill="#2B2B2B"/>
</svg>
